<?xml version="1.0" encoding="utf-8"?>
<!-- Generator: Adobe Illustrator 25.0.0, SVG Export Plug-In . SVG Version: 6.00 Build 0)  -->
<svg version="1.1" id="圖層_1" xmlns="http://www.w3.org/2000/svg" xmlns:xlink="http://www.w3.org/1999/xlink" x="0px" y="0px"
	 viewBox="0 0 100 100" enable-background="new 0 0 100 100" xml:space="preserve">
<g>
	<g>
		<linearGradient id="SVGID_1_" gradientUnits="userSpaceOnUse" x1="0" y1="54.6053" x2="90.7895" y2="54.6053">
			<stop  offset="0" style="stop-color:#866225"/>
			<stop  offset="1" style="stop-color:#EFE898"/>
		</linearGradient>
		<path fill="url(#SVGID_1_)" d="M78.2,29.3c5.4,7,8.7,15.8,8.7,25.3c0,22.9-18.6,41.4-41.4,41.4c-22.9,0-41.4-18.6-41.4-41.4
			s18.6-41.4,41.4-41.4c9.5,0,18.3,3.2,25.3,8.7l2.8-2.8C65.8,12.9,56,9.2,45.4,9.2C20.4,9.2,0,29.6,0,54.6S20.4,100,45.4,100
			c25,0,45.4-20.4,45.4-45.4c0-10.6-3.7-20.4-9.8-28.1L78.2,29.3z"/>
		<linearGradient id="SVGID_2_" gradientUnits="userSpaceOnUse" x1="17.7632" y1="54.6053" x2="73.0263" y2="54.6053">
			<stop  offset="0" style="stop-color:#866225"/>
			<stop  offset="1" style="stop-color:#EFE898"/>
		</linearGradient>
		<path fill="url(#SVGID_2_)" d="M56.6,50.8c0.4,1.2,0.6,2.5,0.6,3.8c0,6.5-5.3,11.8-11.8,11.8c-6.5,0-11.8-5.3-11.8-11.8
			s5.3-11.8,11.8-11.8c1.3,0,2.6,0.2,3.8,0.6l11.7-11.7c-4.4-3-9.7-4.7-15.5-4.7c-15.3,0-27.6,12.4-27.6,27.6s12.4,27.6,27.6,27.6
			C60.7,82.2,73,69.9,73,54.6c0-5.7-1.7-11-4.7-15.5L56.6,50.8z"/>
		<linearGradient id="SVGID_3_" gradientUnits="userSpaceOnUse" x1="76.3158" y1="11.8421" x2="100" y2="11.8421">
			<stop  offset="0" style="stop-color:#866225"/>
			<stop  offset="1" style="stop-color:#EFE898"/>
		</linearGradient>
		<polygon fill="url(#SVGID_3_)" points="89.5,0 76.3,13.2 76.3,23.7 87.9,23.7 100,10.5 90.8,9.2 		"/>
		<linearGradient id="SVGID_4_" gradientUnits="userSpaceOnUse" x1="43.421" y1="33.3696" x2="89.8405" y2="33.3696">
			<stop  offset="0" style="stop-color:#866225"/>
			<stop  offset="1" style="stop-color:#EFE898"/>
		</linearGradient>
		<path fill="url(#SVGID_4_)" d="M45.4,56.6c-0.5,0-1-0.2-1.4-0.6c-0.8-0.8-0.8-2,0-2.8l42.5-42.5c0.8-0.8,2-0.8,2.8,0
			c0.8,0.8,0.8,2,0,2.8L46.8,56C46.4,56.4,45.9,56.6,45.4,56.6z"/>
	</g>
</g>
</svg>
