<?xml version="1.0" encoding="utf-8"?>
<!-- Generator: Adobe Illustrator 25.0.0, SVG Export Plug-In . SVG Version: 6.00 Build 0)  -->
<svg version="1.1" id="圖層_1" xmlns="http://www.w3.org/2000/svg" xmlns:xlink="http://www.w3.org/1999/xlink" x="0px" y="0px"
	 viewBox="0 0 121.9 90" enable-background="new 0 0 121.9 90" xml:space="preserve">
<g>
	<g>
		<g>
			<g>
				<linearGradient id="SVGID_1_" gradientUnits="userSpaceOnUse" x1="0" y1="63.9153" x2="45.0993" y2="63.9153">
					<stop  offset="0" style="stop-color:#866225"/>
					<stop  offset="1" style="stop-color:#EFE898"/>
				</linearGradient>
				<path fill="url(#SVGID_1_)" d="M42.7,90c-0.4,0-0.8-0.1-1.1-0.3l-14.3-7.5L13,89.7c-0.8,0.4-1.8,0.4-2.5-0.2
					c-0.7-0.5-1.1-1.5-1-2.4l2.7-15.9L0.7,60.1c-0.7-0.6-0.9-1.6-0.6-2.5c0.3-0.9,1-1.5,2-1.6L18,53.6l7.1-14.4
					c0.4-0.8,1.2-1.3,2.2-1.3c0.9,0,1.8,0.5,2.2,1.3l7.1,14.4c0.7,0.1,1.1,0.7,1,1.4c-0.1,0.7-0.7,1.1-1.4,1
					c-0.8-0.1-1.5-0.6-1.8-1.3l-7.1-14.4l-7.1,14.4c-0.4,0.7-1,1.2-1.8,1.3L2.4,58.3L14,69.6c0.6,0.6,0.8,1.4,0.7,2.1l-2.7,15.9
					l14.3-7.5c0.7-0.4,1.5-0.4,2.2,0l14.3,7.5L40,71.7c-0.1-0.8,0.1-1.6,0.7-2.1c0.5-0.5,1.2-0.5,1.7,0c0.5,0.5,0.5,1.2,0,1.7
					l2.7,15.9c0.2,0.9-0.2,1.8-1,2.4C43.7,89.8,43.2,90,42.7,90z"/>
				<linearGradient id="SVGID_2_" gradientUnits="userSpaceOnUse" x1="76.7906" y1="63.9152" x2="121.8902" y2="63.9152">
					<stop  offset="0" style="stop-color:#866225"/>
					<stop  offset="1" style="stop-color:#EFE898"/>
				</linearGradient>
				<path fill="url(#SVGID_2_)" d="M110,90c-0.4,0-0.8-0.1-1.1-0.3l-14.3-7.5l-14.3,7.5c-0.8,0.4-1.8,0.4-2.5-0.2
					c-0.7-0.5-1.1-1.4-1-2.4l2.7-15.9c-0.5-0.5-0.5-1.2,0-1.7c0.5-0.5,1.2-0.5,1.7,0c0.6,0.6,0.8,1.4,0.7,2.1l-2.7,15.9l14.3-7.5
					c0.7-0.4,1.5-0.4,2.2,0l14.3,7.5l-2.7-15.9c-0.1-0.8,0.1-1.6,0.7-2.1l11.5-11.2L103.5,56c-0.8-0.1-1.5-0.6-1.8-1.3l-7.1-14.4
					l-7.1,14.4c-0.4,0.7-1,1.2-1.8,1.3c-0.7,0.1-1.3-0.4-1.4-1c-0.1-0.7,0.4-1.3,1-1.4l7.1-14.4c0.4-0.8,1.2-1.3,2.2-1.3
					s1.8,0.5,2.2,1.3l7.1,14.4l15.9,2.3c0.9,0.1,1.7,0.8,2,1.6c0.3,0.9,0.1,1.8-0.6,2.5l-11.5,11.2l2.7,15.9c0.2,0.9-0.2,1.8-1,2.4
					C111,89.8,110.5,90,110,90z"/>
			</g>
		</g>
	</g>
	<linearGradient id="SVGID_3_" gradientUnits="userSpaceOnUse" x1="26.4023" y1="32.9304" x2="95.4878" y2="32.9304">
		<stop  offset="0" style="stop-color:#866225"/>
		<stop  offset="1" style="stop-color:#EFE898"/>
	</linearGradient>
	<path fill="url(#SVGID_3_)" d="M62.4,0.9L71.8,20c0.2,0.5,0.7,0.8,1.2,0.9L94.1,24c1.3,0.2,1.8,1.8,0.9,2.7L79.7,41.6
		c-0.4,0.4-0.5,0.9-0.5,1.4l3.6,21c0.2,1.3-1.1,2.3-2.3,1.7l-18.9-9.9c-0.5-0.2-1-0.2-1.5,0l-18.9,9.9c-1.2,0.6-2.5-0.4-2.3-1.7
		l3.6-21c0.1-0.5-0.1-1-0.5-1.4L26.9,26.7c-0.9-0.9-0.4-2.5,0.9-2.7l21.1-3.1c0.5-0.1,1-0.4,1.2-0.9l9.4-19.1
		C60.1-0.3,61.8-0.3,62.4,0.9z"/>
</g>
</svg>
