<?xml version="1.0" encoding="utf-8"?>
<!-- Generator: Adobe Illustrator 25.0.0, SVG Export Plug-In . SVG Version: 6.00 Build 0)  -->
<svg version="1.1" id="圖層_1" xmlns="http://www.w3.org/2000/svg" xmlns:xlink="http://www.w3.org/1999/xlink" x="0px" y="0px"
	 viewBox="0 0 300 103.5" enable-background="new 0 0 300 103.5" xml:space="preserve">
<g>
	<g>
		<linearGradient id="SVGID_1_" gradientUnits="userSpaceOnUse" x1="16.0328" y1="34.1655" x2="52.3124" y2="34.1655">
			<stop  offset="0" style="stop-color:#866225"/>
			<stop  offset="1" style="stop-color:#EFE898"/>
		</linearGradient>
		<path fill="url(#SVGID_1_)" d="M17.7,32.2c4.6,8.5,12.3,15.7,32.6,22.5c1.3-1.2,2.1-2,2.1-2S1.6,32.5,24.7,13.6
			c-2.5,1.7-4.8,3.1-6.9,4.4C16.2,21.6,14.8,26.9,17.7,32.2z"/>
		<linearGradient id="SVGID_2_" gradientUnits="userSpaceOnUse" x1="11.7992" y1="38.5889" x2="48.7535" y2="38.5889">
			<stop  offset="0" style="stop-color:#866225"/>
			<stop  offset="1" style="stop-color:#EFE898"/>
		</linearGradient>
		<path fill="url(#SVGID_2_)" d="M13.8,35.1c5.5,10.8,21.3,18.2,33.1,22.5c0.7-0.5,1.3-1,1.9-1.5c-20-6.9-27.8-14.3-32.6-23
			c-2.6-4.8-2.1-9.7-0.8-13.4c-1,0.6-1.9,1.3-2.7,1.9C11.2,26.2,11.6,30.8,13.8,35.1z"/>
		<linearGradient id="SVGID_3_" gradientUnits="userSpaceOnUse" x1="7.1512" y1="42.1271" x2="45.148" y2="42.1271">
			<stop  offset="0" style="stop-color:#866225"/>
			<stop  offset="1" style="stop-color:#EFE898"/>
		</linearGradient>
		<path fill="url(#SVGID_3_)" d="M12.3,35.9c-2-4-2.7-8.2-1.9-12.5C6.6,27,5.8,30.9,9.9,38.5c3.6,6.5,16.2,18.9,31.8,22.4
			c1.2-0.6,2.3-1.3,3.4-2.1C33.2,54.5,17.9,47,12.3,35.9z"/>
	</g>
	<g>
		<path fill="#534741" d="M105.6,66.4c0.2,0.2,0.4,0.3,0.7,0.3h18.2l-1.4,2.4l-21.8,0c-0.8,0-1.5-0.3-2-0.8
			c-0.5-0.6-0.8-1.2-0.8-1.9V52.3c0-0.7,0.3-1.4,0.8-1.9c0.5-0.6,1.2-0.8,2-0.8h15c0.3,0,0.5-0.1,0.7-0.3c0.2-0.2,0.3-0.4,0.3-0.7
			v-10c0-0.3-0.1-0.5-0.3-0.7s-0.4-0.3-0.7-0.3H98.4v-2.4h22.9c0.8,0,1.5,0.3,2,0.8c0.5,0.5,0.8,1.2,0.8,2v11.3c0,0.8-0.3,1.5-0.8,2
			c-0.5,0.5-1.2,0.8-2,0.8h-15c-0.3,0-0.5,0.1-0.7,0.3c-0.2,0.2-0.3,0.4-0.3,0.7v12.8C105.3,66,105.4,66.2,105.6,66.4z"/>
		<path fill="#534741" d="M135.4,66.4c0.2,0.2,0.4,0.3,0.7,0.3h18.2l-1.4,2.4l-21.8,0c-0.8,0-1.5-0.3-2-0.8
			c-0.5-0.6-0.8-1.2-0.8-1.9V52.3c0-0.7,0.3-1.4,0.8-1.9c0.5-0.6,1.2-0.8,2-0.8h15c0.3,0,0.5-0.1,0.7-0.3c0.2-0.2,0.3-0.4,0.3-0.7
			v-10c0-0.3-0.1-0.5-0.3-0.7s-0.4-0.3-0.7-0.3h-17.9v-2.4h22.9c0.8,0,1.5,0.3,2,0.8c0.5,0.5,0.8,1.2,0.8,2v11.3
			c0,0.8-0.3,1.5-0.8,2c-0.5,0.5-1.2,0.8-2,0.8h-15c-0.3,0-0.5,0.1-0.7,0.3c-0.2,0.2-0.3,0.4-0.3,0.7v12.8
			C135.1,66,135.2,66.2,135.4,66.4z"/>
		<path fill="#534741" d="M180.8,35.1c0.8,0,1.4,0.3,1.9,0.8c0.5,0.5,0.8,1.2,0.8,1.9v28.7c0,0.7-0.3,1.4-0.8,1.9
			c-0.5,0.5-1.2,0.8-1.9,0.8h-22.1l-1.3-2.4h18.4c0.3,0,0.5-0.1,0.7-0.3c0.2-0.2,0.3-0.4,0.3-0.7v-11h-16.1c-0.7,0-1.4-0.3-1.9-0.8
			c-0.5-0.5-0.8-1.2-0.8-1.9V37.8c0-0.7,0.3-1.4,0.8-1.9c0.5-0.5,1.2-0.8,1.9-0.8H180.8z M176.8,52.4v-14c0-0.3-0.1-0.5-0.3-0.7
			c-0.2-0.2-0.4-0.3-0.7-0.3h-10.2c-0.3,0-0.5,0.1-0.7,0.3c-0.2,0.2-0.3,0.4-0.3,0.7v13c0,0.3,0.1,0.5,0.3,0.7
			c0.2,0.2,0.4,0.3,0.7,0.3H176.8z"/>
		<path fill="#534741" d="M213,48.5c0,0.8-0.3,1.4-0.8,2c-0.6,0.5-1.2,0.8-1.9,0.8c0.7,0,1.4,0.3,1.9,0.8c0.6,0.5,0.8,1.2,0.8,2
			v12.4c0,0.8-0.3,1.4-0.8,2c-0.6,0.5-1.2,0.8-1.9,0.8h-20c-0.8,0-1.4-0.3-2-0.8c-0.5-0.5-0.8-1.2-0.8-2V54c0-0.8,0.3-1.4,0.8-2
			c0.5-0.5,1.2-0.8,2-0.8c-0.8,0-1.4-0.3-2-0.8c-0.5-0.5-0.8-1.2-0.8-2V37.9c0-0.8,0.3-1.5,0.8-2c0.5-0.5,1.2-0.8,2-0.8h20
			c0.7,0,1.4,0.3,1.9,0.8c0.6,0.5,0.8,1.2,0.8,2V48.5z M194.2,49c0,0.3,0.1,0.6,0.3,0.7c0.2,0.2,0.4,0.3,0.7,0.3h10
			c0.3,0,0.6-0.1,0.8-0.3c0.2-0.2,0.3-0.4,0.3-0.7V38.5c0-0.3-0.1-0.5-0.3-0.7c-0.2-0.2-0.5-0.3-0.8-0.3h-10c-0.3,0-0.6,0.1-0.7,0.3
			c-0.2,0.2-0.3,0.4-0.3,0.7V49z M206.3,53.5c0-0.3-0.1-0.5-0.3-0.7c-0.2-0.2-0.5-0.3-0.8-0.3h-10c-0.3,0-0.6,0.1-0.7,0.3
			c-0.2,0.2-0.3,0.4-0.3,0.7v12.3c0,0.3,0.1,0.5,0.3,0.7c0.2,0.2,0.4,0.3,0.7,0.3h10c0.3,0,0.6-0.1,0.8-0.3c0.2-0.2,0.3-0.4,0.3-0.7
			V53.5z"/>
		<path fill="#534741" d="M228.4,69.2c-0.7,0-1.4-0.2-1.9-0.7c-0.5-0.5-0.7-1.1-0.7-1.9c0-0.7,0.2-1.4,0.7-1.9
			c0.5-0.5,1.1-0.7,1.9-0.7c0.7,0,1.4,0.2,1.9,0.7c0.5,0.5,0.7,1.1,0.7,1.9c0,0.7-0.2,1.4-0.7,1.9C229.8,68.9,229.1,69.2,228.4,69.2
			z"/>
		<path fill="#534741" d="M270.7,46.1c0.5,0.5,0.7,1.1,0.7,1.9v21.2H265V48.6c0-0.3-0.1-0.5-0.3-0.7c-0.2-0.2-0.4-0.3-0.7-0.3h-0.7
			c-0.3,0-0.6,0.1-0.9,0.3l-2.8,1.8v19.5h-6.5V48.6c0-0.3-0.1-0.5-0.3-0.7c-0.2-0.2-0.4-0.3-0.7-0.3h-0.7c-0.3,0-0.6,0.1-0.9,0.3
			l-2.2,1.4v19.8h-6.5l0-23.8h6.5v1.5l1.6-1c0.5-0.3,1.1-0.5,1.8-0.5h5.3c0.6,0,1.1,0.2,1.6,0.5c0.5,0.4,0.8,0.8,0.9,1.4l2.3-1.4
			c0.5-0.3,1.1-0.5,1.8-0.5h5.3C269.6,45.3,270.2,45.6,270.7,46.1z"/>
		<path fill="#534741" d="M297.8,66.8l-1.2,2.4h-19.7c-0.7,0-1.3-0.2-1.8-0.7c-0.5-0.5-0.8-1.1-0.8-1.9V47.9c0-0.7,0.3-1.4,0.8-1.9
			c0.5-0.5,1.1-0.7,1.8-0.7h17.5c0.7,0,1.3,0.2,1.8,0.7c0.5,0.5,0.8,1.1,0.8,1.9v7.7c0,0.7-0.3,1.3-0.8,1.8
			c-0.5,0.5-1.1,0.8-1.8,0.8H281v7.7c0,0.3,0.1,0.5,0.3,0.7c0.2,0.2,0.4,0.3,0.7,0.3H297.8z M282,47.7c-0.3,0-0.6,0.1-0.7,0.3
			c-0.2,0.2-0.3,0.4-0.3,0.7v7.1h8.3c0.3,0,0.5-0.1,0.7-0.3c0.2-0.2,0.3-0.4,0.3-0.7v-6.1c0-0.3-0.1-0.5-0.3-0.7
			c-0.2-0.2-0.4-0.3-0.7-0.3H282z"/>
	</g>
	<g>
		<g>
			<path fill="#908075" d="M97.6,80.4h4.8c2.7,0,3.9,1.4,3.9,3.1c0,1.5-0.8,2.4-1.8,2.7c0.9,0.3,2.2,1.2,2.2,3
				c0,2.4-1.8,3.7-4.2,3.7h-4.9V80.4z M102.1,85.7c1.8,0,2.5-0.7,2.5-1.9c0-1.1-0.8-1.9-2.3-1.9h-3.1v3.9H102.1z M99.3,91.6h3.1
				c1.6,0,2.7-0.7,2.7-2.3c0-1.4-0.9-2.3-3-2.3h-2.8V91.6z"/>
			<path fill="#908075" d="M112.7,80.4V88c0,3,1.6,3.8,3.2,3.8c1.9,0,3.2-0.9,3.2-3.8v-7.6h1.7v7.5c0,4.1-2.3,5.3-4.9,5.3
				c-2.6,0-4.9-1.3-4.9-5.1v-7.6H112.7z"/>
			<path fill="#908075" d="M126.3,89.5c0.3,1.5,1.4,2.3,3.2,2.3c2,0,2.7-0.9,2.7-2.1c0-1.3-0.6-2-3.1-2.6c-3-0.7-4-1.7-4-3.5
				c0-1.9,1.4-3.4,4.2-3.4c3,0,4.2,1.7,4.4,3.4H132c-0.2-1.1-0.9-2-2.8-2c-1.5,0-2.4,0.7-2.4,1.9c0,1.2,0.7,1.6,2.9,2.2
				c3.6,0.9,4.2,2.3,4.2,3.9c0,2-1.5,3.6-4.6,3.6c-3.2,0-4.5-1.7-4.8-3.7H126.3z"/>
			<path fill="#908075" d="M139.9,80.4V93h-1.7V80.4H139.9z"/>
			<path fill="#908075" d="M145.1,93V80.4h2.2c1.8,2.9,5.7,9.2,6.4,10.6h0c-0.1-1.6-0.1-3.6-0.1-5.7v-4.9h1.6V93h-2.1
				c-1.7-2.7-5.8-9.5-6.5-10.9h0c0.1,1.4,0.1,3.6,0.1,5.8v5H145.1z"/>
			<path fill="#908075" d="M168.4,87.1h-6.3v4.5h6.9l-0.2,1.4h-8.3V80.4h8.2v1.4h-6.6v3.8h6.3V87.1z"/>
			<path fill="#908075" d="M174,89.5c0.3,1.5,1.4,2.3,3.2,2.3c2,0,2.7-0.9,2.7-2.1c0-1.3-0.6-2-3.1-2.6c-3-0.7-4-1.7-4-3.5
				c0-1.9,1.4-3.4,4.2-3.4c3,0,4.2,1.7,4.4,3.4h-1.7c-0.2-1.1-0.9-2-2.8-2c-1.5,0-2.4,0.7-2.4,1.9c0,1.2,0.7,1.6,2.9,2.2
				c3.6,0.9,4.2,2.3,4.2,3.9c0,2-1.5,3.6-4.6,3.6c-3.2,0-4.5-1.7-4.8-3.7H174z"/>
			<path fill="#908075" d="M186.9,89.5c0.3,1.5,1.4,2.3,3.2,2.3c2,0,2.7-0.9,2.7-2.1c0-1.3-0.6-2-3.1-2.6c-3-0.7-4-1.7-4-3.5
				c0-1.9,1.4-3.4,4.2-3.4c3,0,4.2,1.7,4.4,3.4h-1.7c-0.2-1.1-0.9-2-2.8-2c-1.5,0-2.4,0.7-2.4,1.9c0,1.2,0.7,1.6,2.9,2.2
				c3.6,0.9,4.2,2.3,4.2,3.9c0,2-1.5,3.6-4.6,3.6c-3.2,0-4.5-1.7-4.8-3.7H186.9z"/>
			<path fill="#908075" d="M206.1,89.5c0.3,1.5,1.4,2.3,3.2,2.3c2,0,2.7-0.9,2.7-2.1c0-1.3-0.6-2-3.1-2.6c-3-0.7-4-1.7-4-3.5
				c0-1.9,1.4-3.4,4.2-3.4c3,0,4.2,1.7,4.4,3.4h-1.7c-0.2-1.1-0.9-2-2.8-2c-1.5,0-2.4,0.7-2.4,1.9c0,1.2,0.7,1.6,2.9,2.2
				c3.6,0.9,4.2,2.3,4.2,3.9c0,2-1.5,3.6-4.6,3.6c-3.2,0-4.5-1.7-4.8-3.7H206.1z"/>
			<path fill="#908075" d="M225.9,87.1h-6.3v4.5h6.9l-0.2,1.4H218V80.4h8.2v1.4h-6.6v3.8h6.3V87.1z"/>
			<path fill="#908075" d="M232.3,87.5V93h-1.7V80.4h4.9c2.6,0,4,1.4,4,3.4c0,1.6-0.9,2.6-2.1,3c1,0.3,1.9,1,1.9,3.2v0.5
				c0,0.9,0,2,0.2,2.5h-1.6c-0.2-0.5-0.2-1.5-0.2-2.7v-0.3c0-1.8-0.5-2.6-2.8-2.6H232.3z M232.3,86.1h2.7c1.9,0,2.8-0.7,2.8-2.1
				c0-1.3-0.9-2.1-2.6-2.1h-2.9V86.1z"/>
			<path fill="#908075" d="M247.4,93l-4.6-12.6h1.8l2.2,6.3c0.6,1.8,1.3,3.7,1.6,4.9h0c0.3-1,1-3,1.6-4.8l2.3-6.3h1.7L249.3,93
				H247.4z"/>
			<path fill="#908075" d="M259.4,80.4V93h-1.7V80.4H259.4z"/>
			<path fill="#908075" d="M274.5,89.5c-0.6,2.1-2.2,3.7-5,3.7c-3.8,0-5.7-2.9-5.7-6.4c0-3.4,1.9-6.5,5.7-6.5c3,0,4.6,1.7,4.9,3.8
				h-1.7c-0.5-1.4-1.4-2.4-3.3-2.4c-2.8,0-3.9,2.5-3.9,5.1c0,2.5,1.1,5.1,4,5.1c1.9,0,2.8-1.1,3.3-2.3H274.5z"/>
			<path fill="#908075" d="M286.7,87.1h-6.3v4.5h6.9l-0.2,1.4h-8.3V80.4h8.2v1.4h-6.6v3.8h6.3V87.1z"/>
			<path fill="#908075" d="M292.3,89.5c0.3,1.5,1.4,2.3,3.2,2.3c2,0,2.7-0.9,2.7-2.1c0-1.3-0.6-2-3.1-2.6c-3-0.7-4-1.7-4-3.5
				c0-1.9,1.4-3.4,4.2-3.4c3,0,4.2,1.7,4.4,3.4H298c-0.2-1.1-0.9-2-2.8-2c-1.5,0-2.4,0.7-2.4,1.9c0,1.2,0.7,1.6,2.9,2.2
				c3.6,0.9,4.2,2.3,4.2,3.9c0,2-1.5,3.6-4.6,3.6c-3.2,0-4.5-1.7-4.8-3.7H292.3z"/>
		</g>
	</g>
	<g>
		<linearGradient id="SVGID_4_" gradientUnits="userSpaceOnUse" x1="44.048" y1="0" x2="44.048" y2="71.9197">
			<stop  offset="0" style="stop-color:#866225"/>
			<stop  offset="0.2724" style="stop-color:#886527"/>
			<stop  offset="0.4402" style="stop-color:#8F6D2E"/>
			<stop  offset="0.5797" style="stop-color:#9A7C3B"/>
			<stop  offset="0.7037" style="stop-color:#AA904D"/>
			<stop  offset="0.8174" style="stop-color:#BFAB63"/>
			<stop  offset="0.9221" style="stop-color:#D8CB7F"/>
			<stop  offset="1" style="stop-color:#EFE898"/>
		</linearGradient>
		<path fill="url(#SVGID_4_)" d="M53.7,67.4c0-66.5,1.9-53.8-5.6-67.4l-14,11v60.9C40.8,69.8,47.9,68.3,53.7,67.4z"/>
		<linearGradient id="SVGID_5_" gradientUnits="userSpaceOnUse" x1="22.0182" y1="17.384" x2="22.0182" y2="79.4986">
			<stop  offset="0" style="stop-color:#866225"/>
			<stop  offset="0.2724" style="stop-color:#886527"/>
			<stop  offset="0.4402" style="stop-color:#8F6D2E"/>
			<stop  offset="0.5797" style="stop-color:#9A7C3B"/>
			<stop  offset="0.7037" style="stop-color:#AA904D"/>
			<stop  offset="0.8174" style="stop-color:#BFAB63"/>
			<stop  offset="0.9221" style="stop-color:#D8CB7F"/>
			<stop  offset="1" style="stop-color:#EFE898"/>
		</linearGradient>
		<path fill="url(#SVGID_5_)" d="M27.8,17.4L16.4,26v48.7c0,7.8-2.2,4.9,11.3-0.5V17.4z"/>
		<linearGradient id="SVGID_6_" gradientUnits="userSpaceOnUse" x1="67.5438" y1="23.0195" x2="67.5438" y2="65.7647">
			<stop  offset="0" style="stop-color:#866225"/>
			<stop  offset="0.2724" style="stop-color:#886527"/>
			<stop  offset="0.4402" style="stop-color:#8F6D2E"/>
			<stop  offset="0.5797" style="stop-color:#9A7C3B"/>
			<stop  offset="0.7037" style="stop-color:#AA904D"/>
			<stop  offset="0.8174" style="stop-color:#BFAB63"/>
			<stop  offset="0.9221" style="stop-color:#D8CB7F"/>
			<stop  offset="1" style="stop-color:#EFE898"/>
		</linearGradient>
		<path fill="url(#SVGID_6_)" d="M73.2,65.6c2.5,0,1.8,4.4,1.8-27.2c0-2.9,0.5-2-1.8-4c-15.6-13.8-13-12.5-13-9.1l13,11.5V65.6z"/>
		<path fill="#808080" d="M76.9,60.7C77,60.7,77,60.7,76.9,60.7L76.9,60.7z"/>
	</g>
	<linearGradient id="SVGID_7_" gradientUnits="userSpaceOnUse" x1="12.3725" y1="22.2907" x2="58.2163" y2="22.2907">
		<stop  offset="0" style="stop-color:#866225"/>
		<stop  offset="1" style="stop-color:#EFE898"/>
	</linearGradient>
	<path fill="url(#SVGID_7_)" d="M12.4,21.7c0,0,21.2-10.1,36.6,12.1c-0.8-5.6-3.3-13.6-3.3-13.6s6.5,0.2,12.6,1.3
		C55.5,17.7,42,5.6,24.7,13.3C20.7,15.4,12.4,21.7,12.4,21.7z"/>
	<g>
		<path fill="none" d="M57.4,67.8c0.3-0.3,0.7-0.7,1.5-1.7c-5.1-1.3-9.6-2.7-13.6-4.1c-0.6,0.5-1.2,1-1.9,1.5
			C50.7,66.2,56.4,67.6,57.4,67.8z"/>
	</g>
	<linearGradient id="SVGID_8_" gradientUnits="userSpaceOnUse" x1="0" y1="82.0962" x2="81.6121" y2="82.0962">
		<stop  offset="0" style="stop-color:#866225"/>
		<stop  offset="1" style="stop-color:#EFE898"/>
	</linearGradient>
	<path fill="url(#SVGID_8_)" d="M80.3,70.2c3.5-2.7-1.7-9.1-3.4-9.6c10.6,9.4-15.4,4.2-42.8,12.9C19.3,78.2-4,91.6,0.6,103.5
		c1.5-9.4,12.6-22.8,43.8-28.7c14.3-2.7,29-1.2,34.7-3.8c-1.5,3.9-15.2,0.3-37.4,7.3c-12.5,3.9-32.1,15.2-28.2,25.2
		c1.3-7.9,10.8-19.4,37-24.3c12.4-2.3,24.9-0.8,29.4-3.2c0.7,4-9.9,0.7-27.2,6.1C44,84.8,29.3,93,32.2,100.4
		C33.1,94.7,40,87,59,83.4c13.3-2.5,27-0.2,21.3-7.7C81.9,74.6,82.1,72.9,80.3,70.2z"/>
</g>
</svg>
