<?xml version="1.0" encoding="utf-8"?>
<!-- Generator: Adobe Illustrator 25.0.0, SVG Export Plug-In . SVG Version: 6.00 Build 0)  -->
<svg version="1.1" id="圖層_1" xmlns="http://www.w3.org/2000/svg" xmlns:xlink="http://www.w3.org/1999/xlink" x="0px" y="0px"
	 viewBox="0 0 91.4 100" enable-background="new 0 0 91.4 100" xml:space="preserve">
<g>
	<g>
		<linearGradient id="SVGID_1_" gradientUnits="userSpaceOnUse" x1="0" y1="50" x2="91.4177" y2="50">
			<stop  offset="0" style="stop-color:#866225"/>
			<stop  offset="1" style="stop-color:#EFE898"/>
		</linearGradient>
		<path fill="url(#SVGID_1_)" d="M90.3,18c-3.8-5.3-7.6-10.5-11.3-15.9C77-1,75.5-0.4,73.7,2.2c-3.5,5-7,10-10.6,14.9
			c-3,4-1.6,5.4,2.7,5.1c3.5-0.3,4,1.3,4,4.3c-0.1,21.8,0,43.6-0.1,65.4c0,1.6,1,4.3-1.7,4.4c-3.4,0.1-1.8-3-1.9-4.7
			c-0.1-12.8-0.4-25.7,0.1-38.5c0.2-6.3-3.3-5.6-7.3-5.7c-4.2-0.1-7.4-0.3-7.2,5.8c0.5,13.2,0.2,26.5,0.1,39.7
			c0,1.3,0.5,3.1-1.6,3.4C47.5,96.6,48,94.5,48,93c0-7.9-0.3-15.9,0.1-23.8c0.3-6.5-4.2-4.5-7.4-4.8c-3.5-0.2-6.9-0.6-6.6,5
			c0.4,7.7,0.1,15.5,0.1,23.2c0,1.5,0.6,3.6-1.8,3.8c-2.9,0.2-2.4-2.1-2.4-3.8c0-15.7,0-31.4-0.1-47c0-3.2,1.1-4.3,4.3-4.2
			c7.3,0.2,14.7-0.1,22,0.3c3.8,0.2,4.6-1.5,4.2-4.6c-0.3-2.4,1.6-5.9-3.6-5.8c-16.5,0.3-33,0.2-49.5,0.3c-3.9,0-6.9,1.8-7,6.1
			c-0.2,8.1,0,16.3-0.1,24.4c0,2.4,1,3,3.2,3.2c3.7,0.3,5-1,4.9-4.8C7.8,53.6,8,46.9,8,38.9c3.4,2.6,2.6,4.8,2.6,6.6
			c0.1,15.7,0.4,31.4-0.1,47c-0.2,6.5,1.9,7.5,7.7,7.4c20.4-0.4,40.7-0.1,61.1-0.1c6,0,5.9,0,4.3-5.1c-0.3-0.9-0.1-2-0.1-3
			c0-21.4,0.1-42.8-0.1-64.2c0-3.6,0.5-5.8,4.9-5.4C91.7,22.4,92.2,20.6,90.3,18z M21.3,96c-0.6,0-1.2,0.1-1.9,0.1
			c0-10,0-19.9,0-29.9c0.5,0,1.7,0,2.2,0C21.7,76.1,21.3,85.4,21.3,96z M40.7,96.7c-3.1,0-3.8-1.3-3.7-4.1c0.2-3.5,0-6.9,0-10.4
			c0-3.3,0.2-6.5,0-9.8c-0.2-3.2,0.6-4.8,4.3-4.7c3.7,0,3.7,2,3.7,4.7c-0.1,6.7-0.2,13.4,0,20.2C45.1,95.9,43.8,96.7,40.7,96.7z
			 M62.5,73.7c0,6.1,0,12.2,0,18.3c0,2.6,0.3,4.7-3.6,4.7c-3.5,0-3.9-1.4-3.9-4.3c0.1-12.4,0.1-24.8,0-37.3c0-2.9,0.4-4.3,3.9-4.3
			c3.9,0,3.6,2.1,3.6,4.6C62.4,61.5,62.5,67.6,62.5,73.7z M80.5,26.6c0,21.6,0,43.1,0,64.7c0,2.6,0.6,5.2-3.7,5.2
			c-4.3,0-3.8-2.4-3.8-5.1c0-22-0.1-44,0.1-65.9c0-4.6-0.4-8-7.9-5.9C69.7,13.4,72.8,9,76.4,4.1c3.4,4.8,6.6,9.2,10.3,14.4
			C79.3,17.8,80.5,22.5,80.5,26.6z"/>
		<linearGradient id="SVGID_2_" gradientUnits="userSpaceOnUse" x1="12.1749" y1="17.0524" x2="28.7525" y2="17.0524">
			<stop  offset="0" style="stop-color:#866225"/>
			<stop  offset="1" style="stop-color:#EFE898"/>
		</linearGradient>
		<path fill="url(#SVGID_2_)" d="M20.3,25.4c4.3,0.1,8.2-3.5,8.5-7.8c0.3-4.5-3.6-8.8-8.1-8.9c-4.4-0.1-8.5,4-8.5,8.5
			C12.2,21.5,15.9,25.3,20.3,25.4z"/>
	</g>
</g>
</svg>
